<svg width="16" height="16" viewBox="0 0 16 16" fill="none" xmlns="http://www.w3.org/2000/svg">
<g clip-path="url(#clip0_76_2)">
<g filter="url(#filter0_d_76_2)">
<path d="M15 9C15.5523 9 16 8.55228 16 8C16 7.44772 15.5523 7 15 7L1 7C0.447715 7 0 7.44772 0 8C0 8.55228 0.447715 9 1 9H15Z" fill="white"/>
</g>
<g filter="url(#filter1_d_76_2)">
<path d="M9 1C9 0.447715 8.55228 0 8 0C7.44772 0 7 0.447715 7 1V15C7 15.5523 7.44772 16 8 16C8.55228 16 9 15.5523 9 15V1Z" fill="white"/>
</g>
</g>
<defs>
<filter id="filter0_d_76_2" x="-4" y="7" width="24" height="10" filterUnits="userSpaceOnUse" color-interpolation-filters="sRGB">
<feFlood flood-opacity="0" result="BackgroundImageFix"/>
<feColorMatrix in="SourceAlpha" type="matrix" values="0 0 0 0 0 0 0 0 0 0 0 0 0 0 0 0 0 0 127 0" result="hardAlpha"/>
<feOffset dy="4"/>
<feGaussianBlur stdDeviation="2"/>
<feComposite in2="hardAlpha" operator="out"/>
<feColorMatrix type="matrix" values="0 0 0 0 0 0 0 0 0 0 0 0 0 0 0 0 0 0 0.25 0"/>
<feBlend mode="normal" in2="BackgroundImageFix" result="effect1_dropShadow_76_2"/>
<feBlend mode="normal" in="SourceGraphic" in2="effect1_dropShadow_76_2" result="shape"/>
</filter>
<filter id="filter1_d_76_2" x="3" y="0" width="10" height="24" filterUnits="userSpaceOnUse" color-interpolation-filters="sRGB">
<feFlood flood-opacity="0" result="BackgroundImageFix"/>
<feColorMatrix in="SourceAlpha" type="matrix" values="0 0 0 0 0 0 0 0 0 0 0 0 0 0 0 0 0 0 127 0" result="hardAlpha"/>
<feOffset dy="4"/>
<feGaussianBlur stdDeviation="2"/>
<feComposite in2="hardAlpha" operator="out"/>
<feColorMatrix type="matrix" values="0 0 0 0 0 0 0 0 0 0 0 0 0 0 0 0 0 0 0.25 0"/>
<feBlend mode="normal" in2="BackgroundImageFix" result="effect1_dropShadow_76_2"/>
<feBlend mode="normal" in="SourceGraphic" in2="effect1_dropShadow_76_2" result="shape"/>
</filter>
<clipPath id="clip0_76_2">
<rect width="16" height="16" fill="white"/>
</clipPath>
</defs>
</svg>
