<?xml version="1.0" encoding="UTF-8"?>
<!DOCTYPE svg PUBLIC "-//W3C//DTD SVG 1.1//EN" "http://www.w3.org/Graphics/SVG/1.1/DTD/svg11.dtd">
<svg xmlns="http://www.w3.org/2000/svg" version="1.1" width="56px" height="60px" style="shape-rendering:geometricPrecision; text-rendering:geometricPrecision; image-rendering:optimizeQuality; fill-rule:evenodd; clip-rule:evenodd" xmlns:xlink="http://www.w3.org/1999/xlink">
<g><path style="opacity:1" fill="#fefefe" d="M -0.5,-0.5 C 18.1667,-0.5 36.8333,-0.5 55.5,-0.5C 55.5,19.5 55.5,39.5 55.5,59.5C 36.8333,59.5 18.1667,59.5 -0.5,59.5C -0.5,39.5 -0.5,19.5 -0.5,-0.5 Z"/></g>
<g><path style="opacity:1" fill="#c4b3ba" d="M 43.5,10.5 C 43.5,11.1667 43.5,11.8333 43.5,12.5C 33.2487,11.525 22.9154,11.1917 12.5,11.5C 12.3315,17.034 11.6649,22.3673 10.5,27.5C 10.5,22.1667 10.5,16.8333 10.5,11.5C 10.6107,10.8826 10.944,10.3826 11.5,10C 22.2432,9.19165 32.9099,9.35832 43.5,10.5 Z"/></g>
<g><path style="opacity:1" fill="#fdfefc" d="M 43.5,12.5 C 44.1667,21.5 44.8333,30.5 45.5,39.5C 45.8333,42.8333 46.1667,46.1667 46.5,49.5C 33.8333,49.5 21.1667,49.5 8.5,49.5C 9.24878,43.1763 9.91545,36.8429 10.5,30.5C 10.5,29.5 10.5,28.5 10.5,27.5C 11.6649,22.3673 12.3315,17.034 12.5,11.5C 22.9154,11.1917 33.2487,11.525 43.5,12.5 Z"/></g>
<g><path style="opacity:1" fill="#c5b6c5" d="M 43.5,10.5 C 44.2216,10.9175 44.7216,11.5842 45,12.5C 46.1641,21.4755 46.9974,30.4755 47.5,39.5C 46.8333,39.5 46.1667,39.5 45.5,39.5C 44.8333,30.5 44.1667,21.5 43.5,12.5C 43.5,11.8333 43.5,11.1667 43.5,10.5 Z"/></g>
<g><path style="opacity:1" fill="#e2c8bc" d="M 10.5,11.5 C 10.5,16.8333 10.5,22.1667 10.5,27.5C 10.5,28.5 10.5,29.5 10.5,30.5C 9.2521,31.3339 8.58544,32.6672 8.5,34.5C 8.11492,39.0203 7.44825,43.3537 6.5,47.5C 6.89733,35.2571 8.23066,23.2571 10.5,11.5 Z"/></g>
<g><path style="opacity:1" fill="#c8b3bb" d="M 18.5,14.5 C 20.1185,18.8262 21.2852,23.4929 22,28.5C 26.7968,32.8023 30.7968,32.1356 34,26.5C 34.1735,22.4592 34.6735,18.4592 35.5,14.5C 36.6609,18.7953 36.8275,23.1287 36,27.5C 31.4181,34.4177 26.0847,35.0844 20,29.5C 18.6115,24.6278 18.1115,19.6278 18.5,14.5 Z"/></g>
<g><path style="opacity:1" fill="#cdbfc5" d="M 10.5,30.5 C 9.91545,36.8429 9.24878,43.1763 8.5,49.5C 21.1667,49.5 33.8333,49.5 46.5,49.5C 46.1667,46.1667 45.8333,42.8333 45.5,39.5C 46.1667,39.5 46.8333,39.5 47.5,39.5C 48.6433,42.9758 48.8099,46.6425 48,50.5C 47.5,51 47,51.5 46.5,52C 33.8333,52.6667 21.1667,52.6667 8.5,52C 6.96317,50.8904 6.2965,49.3904 6.5,47.5C 7.44825,43.3537 8.11492,39.0203 8.5,34.5C 8.58544,32.6672 9.2521,31.3339 10.5,30.5 Z"/></g>
</svg>
