<svg width="81" height="81" viewBox="0 0 81 81" fill="none" xmlns="http://www.w3.org/2000/svg">
<path d="M33.75 69.1875C36.5459 69.1875 38.8125 66.9209 38.8125 64.125C38.8125 61.3291 36.5459 59.0625 33.75 59.0625C30.9541 59.0625 28.6875 61.3291 28.6875 64.125C28.6875 66.9209 30.9541 69.1875 33.75 69.1875Z" stroke="#786872" stroke-width="3"/>
<path d="M57.375 69.1875C60.1709 69.1875 62.4375 66.9209 62.4375 64.125C62.4375 61.3291 60.1709 59.0625 57.375 59.0625C54.5791 59.0625 52.3125 61.3291 52.3125 64.125C52.3125 66.9209 54.5791 69.1875 57.375 69.1875Z" stroke="#786872" stroke-width="3"/>
<path d="M11.8125 13.5H18.5625L30.3885 50.625H57.375" stroke="#786872" stroke-width="3" stroke-linecap="round" stroke-linejoin="round"/>
<path d="M27.756 42.1875L21.2625 21.9375H63.4736C63.7411 21.9372 64.0049 22.0004 64.2432 22.1221C64.4814 22.2438 64.6874 22.4204 64.844 22.6373C65.0005 22.8542 65.1033 23.1052 65.1438 23.3697C65.1843 23.6341 65.1613 23.9044 65.0767 24.1583L59.4506 41.0333C59.3387 41.3691 59.1241 41.6613 58.837 41.8685C58.5499 42.0756 58.2049 42.1872 57.8509 42.1875H27.756Z" stroke="#786872" stroke-width="3" stroke-linecap="round" stroke-linejoin="round"/>
</svg>
