<svg width="36" height="34" viewBox="0 0 36 34" fill="none" xmlns="http://www.w3.org/2000/svg">
<path fill-rule="evenodd" clip-rule="evenodd" d="M7.5 2.5C7.5 3.5 7.5 4.5 7.5 5.5C16.5 5.5 25.5 5.5 34.5 5.5C34.5 6.5 34.5 7.5 34.5 8.5C34.4533 11.5682 33.9533 14.5682 33 17.5C32.3292 18.2524 31.4959 18.5858 30.5 18.5C23.8002 18.17 17.1335 18.5033 10.5 19.5C10.6236 20.1067 10.9569 20.44 11.5 20.5C11.6107 21.1174 11.944 21.6174 12.5 22C19.1915 22.1691 25.8581 22.6691 32.5 23.5C32.3764 24.1067 32.0431 24.44 31.5 24.5C25.8333 24.5 20.1667 24.5 14.5 24.5C11.7081 24.5479 9.8747 23.2146 9 20.5C8.2577 14.7885 7.2577 9.1219 6 3.5C4.2663 2.7511 2.433 2.2511 0.5 2C3.184 -0.144903 5.5173 0.0216968 7.5 2.5Z" fill="#85737D"/>
<path fill-rule="evenodd" clip-rule="evenodd" d="M7.5 2.5C16.5701 4.4308 25.9034 5.0974 35.5 4.5C35.7678 6.099 35.4345 7.4324 34.5 8.5C34.5 7.5 34.5 6.5 34.5 5.5C25.5 5.5 16.5 5.5 7.5 5.5C7.5 4.5 7.5 3.5 7.5 2.5Z" fill="#BFB5BB"/>
<path fill-rule="evenodd" clip-rule="evenodd" d="M8.5 7.5C16.5 7.5 24.5 7.5 32.5 7.5C32.2962 10.5176 31.9629 13.5176 31.5 16.5C24.5 16.5 17.5 16.5 10.5 16.5C9.8333 13.5 9.1667 10.5 8.5 7.5Z" fill="#FDFDFD"/>
<path fill-rule="evenodd" clip-rule="evenodd" d="M30.5 18.5C24.1667 19.1667 17.8333 19.8333 11.5 20.5C10.9569 20.44 10.6236 20.1067 10.5 19.5C17.1335 18.5033 23.8002 18.17 30.5 18.5Z" fill="#DAD4D6"/>
<path fill-rule="evenodd" clip-rule="evenodd" d="M14.5 25.5C14.5 25.1667 14.5 24.8333 14.5 24.5C20.1667 24.5 25.8333 24.5 31.5 24.5C31.5 25.1667 31.1667 25.5 30.5 25.5C28.7085 25.366 27.0418 25.6993 25.5 26.5C22.5 25.1667 19.5 25.1667 16.5 26.5C15.8333 26.1667 15.1667 25.8333 14.5 25.5Z" fill="#DBD6D8"/>
<path fill-rule="evenodd" clip-rule="evenodd" d="M14.5 25.5C15.1667 25.8333 15.8333 26.1667 16.5 26.5C18.4051 31.4274 16.7384 33.5941 11.5 33C8.33231 28.8385 9.33231 26.3385 14.5 25.5Z" fill="#86747E"/>
<path fill-rule="evenodd" clip-rule="evenodd" d="M30.5 25.5C33.6898 29.4054 32.8565 32.072 28 33.5C24.5677 32.1072 23.7344 29.7738 25.5 26.5C27.0418 25.6993 28.7085 25.366 30.5 25.5Z" fill="#86747E"/>
<path fill-rule="evenodd" clip-rule="evenodd" d="M13.5 27.5C15.0481 27.8212 15.7148 28.8212 15.5 30.5C12.7524 30.5983 12.0857 29.5983 13.5 27.5Z" fill="#F2F1F2"/>
<path fill-rule="evenodd" clip-rule="evenodd" d="M26.5 27.5C27.5 27.5 28.5 27.5 29.5 27.5C29.5 28.8333 29.5 30.1667 29.5 31.5C28.5 31.5 27.5 31.5 26.5 31.5C26.5 30.1667 26.5 28.8333 26.5 27.5Z" fill="#DFDBDD"/>
<path fill-rule="evenodd" clip-rule="evenodd" d="M13.5 27.5C12.0857 29.5983 12.7524 30.5983 15.5 30.5C14.4324 31.4345 13.099 31.7678 11.5 31.5C11.1568 29.5168 11.8235 28.1834 13.5 27.5Z" fill="#B7ADB2"/>
</svg>
