<svg width="53" height="44" viewBox="0 0 53 44" fill="none" xmlns="http://www.w3.org/2000/svg">
<path fill-rule="evenodd" clip-rule="evenodd" d="M0.998246 0.0624578C14.0025 -0.104142 27.0025 0.0625578 39.9982 0.562458C41.5436 2.38436 42.2102 4.55106 41.9982 7.06246C41.8315 8.72916 41.6649 10.3958 41.4982 12.0625C41.0842 12.5199 40.5842 12.8532 39.9982 13.0625C39.0112 9.79416 38.6778 6.46086 38.9982 3.06246C26.9982 3.06246 14.9982 3.06246 2.99825 3.06246C2.99825 10.3958 2.99825 17.7292 2.99825 25.0625C4.66495 25.0625 6.33155 25.0625 7.99825 25.0625C7.69935 27.1665 8.03265 29.1665 8.99825 31.0625C11.1481 29.4134 13.1481 27.5801 14.9982 25.5625C16.2914 25.0725 17.6248 24.9058 18.9982 25.0625C18.9982 26.0625 18.9982 27.0625 18.9982 28.0625C17.6248 27.9058 16.2914 28.0725 14.9982 28.5625C12.1649 31.3958 9.33155 34.2292 6.49825 37.0625C5.10635 34.2841 4.60635 31.2841 4.99825 28.0625C3.10785 28.266 1.60785 27.5993 0.498246 26.0625C-0.304054 17.3176 -0.137454 8.65086 0.998246 0.0624578Z" fill="#C5B2B6"/>
<path fill-rule="evenodd" clip-rule="evenodd" d="M7.99823 9.06247C16.3581 8.73127 24.6914 9.06457 32.9982 10.0625C28.8315 10.3958 24.6649 10.7292 20.4982 11.0625C15.941 11.054 11.7744 10.3873 7.99823 9.06247Z" fill="#C1ACB0"/>
<path fill-rule="evenodd" clip-rule="evenodd" d="M23.9982 15.0624C33.0044 14.896 42.0044 15.0626 50.9982 15.5624C51.4982 16.0624 51.9982 16.5624 52.4982 17.0624C53.1649 23.0624 53.1649 29.0624 52.4982 35.0624C51.4869 35.899 50.3203 36.2324 48.9982 36.0624C49.3058 38.4864 48.9724 40.8197 47.9982 43.0624C45.5145 41.0794 43.1811 38.9128 40.9982 36.5624C34.9982 36.2291 28.9982 35.8957 22.9982 35.5624C21.8562 29.478 21.6895 23.3113 22.4982 17.0624C23.2154 16.5182 23.7154 15.8515 23.9982 15.0624Z" fill="#C8B5B9"/>
<path fill-rule="evenodd" clip-rule="evenodd" d="M7.99823 17.0625C11.7242 16.7399 15.3909 17.0733 18.9982 18.0625C17.1649 18.3958 15.3315 18.7292 13.4982 19.0625C11.2029 19.016 9.36963 18.3493 7.99823 17.0625Z" fill="#C2ADB1"/>
<path fill-rule="evenodd" clip-rule="evenodd" d="M24.9982 18.0624C33.3315 18.0624 41.6649 18.0624 49.9982 18.0624C49.9982 23.3957 49.9982 28.7291 49.9982 34.0624C48.9982 34.0624 47.9982 34.0624 46.9982 34.0624C47.1549 35.4358 46.9882 36.7692 46.4982 38.0624C44.9982 36.5624 43.4982 35.0624 41.9982 33.5624C36.3413 33.063 30.6746 32.8963 24.9982 33.0624C24.9982 28.0624 24.9982 23.0624 24.9982 18.0624Z" fill="#F7F7F7"/>
<path fill-rule="evenodd" clip-rule="evenodd" d="M30.9982 25.0624C32.8352 25.2019 33.1686 25.8685 31.9982 27.0624C31.2007 26.6055 30.8673 25.9388 30.9982 25.0624Z" fill="#C5B1B5"/>
<path fill-rule="evenodd" clip-rule="evenodd" d="M35.9982 25.0624C37.1732 24.8434 38.1732 25.1767 38.9982 26.0624C37.4465 27.3603 36.4465 27.027 35.9982 25.0624Z" fill="#CAB8BC"/>
<path fill-rule="evenodd" clip-rule="evenodd" d="M41.9982 25.0624C43.1732 24.8434 44.1732 25.1767 44.9982 26.0624C43.4465 27.3603 42.4465 27.027 41.9982 25.0624Z" fill="#CBBABD"/>
</svg>
