<?xml version="1.0" encoding="UTF-8"?>
<!DOCTYPE svg PUBLIC "-//W3C//DTD SVG 1.1//EN" "http://www.w3.org/Graphics/SVG/1.1/DTD/svg11.dtd">
<svg xmlns="http://www.w3.org/2000/svg" version="1.1" width="90px" height="90px" style="shape-rendering:geometricPrecision; text-rendering:geometricPrecision; image-rendering:optimizeQuality; fill-rule:evenodd; clip-rule:evenodd" xmlns:xlink="http://www.w3.org/1999/xlink">
<g><path style="opacity:0.9" fill="#f6f0ea" d="M 45.5,20.5 C 45.5,21.5 45.5,22.5 45.5,23.5C 37.6765,28.1289 33.6765,35.1289 33.5,44.5C 33.7384,51.4739 36.0717,57.6406 40.5,63C 42.0779,64.0945 43.7446,64.9278 45.5,65.5C 45.5,66.5 45.5,67.5 45.5,68.5C 16.5616,75.0563 4.06159,63.7229 8,34.5C 12.2368,23.6071 20.2368,18.2737 32,18.5C 36.6307,18.4402 41.1307,19.1069 45.5,20.5 Z"/></g>
<g><path style="opacity:0.895" fill="#c0abaf" d="M 45.5,68.5 C 45.5,67.5 45.5,66.5 45.5,65.5C 51.144,62.5879 54.644,57.9212 56,51.5C 58.643,39.5664 55.143,30.2331 45.5,23.5C 45.5,22.5 45.5,21.5 45.5,20.5C 59.9245,15.118 71.7578,18.4513 81,30.5C 86.6383,42.9571 85.1383,54.4571 76.5,65C 66.7423,70.8995 56.4089,72.0662 45.5,68.5 Z"/></g>
<g><path style="opacity:0.598" fill="#c0acaf" d="M 40.5,35.5 C 43.941,35.3011 47.2744,35.8011 50.5,37C 52.9223,39.112 52.9223,41.112 50.5,43C 53.1003,45.459 53.1003,47.959 50.5,50.5C 47.2423,51.4173 43.909,51.7507 40.5,51.5C 40.5,46.1667 40.5,40.8333 40.5,35.5 Z M 44.5,39.5 C 45.675,39.281 46.675,39.6143 47.5,40.5C 45.9483,41.7979 44.9483,41.4646 44.5,39.5 Z M 44.5,44.5 C 49.774,45.5556 49.774,46.5556 44.5,47.5C 44.5,46.5 44.5,45.5 44.5,44.5 Z"/></g>
<g><path style="opacity:1" fill="#c0abaf" d="M 25.5,37.5 C 26.8799,37.9623 27.5466,38.9623 27.5,40.5C 26.1667,42.5 26.1667,44.5 27.5,46.5C 27.5466,48.0377 26.8799,49.0377 25.5,49.5C 23.1667,49.5 20.8333,49.5 18.5,49.5C 18.5,45.5 18.5,41.5 18.5,37.5C 20.8333,37.5 23.1667,37.5 25.5,37.5 Z"/></g>
<g><path style="opacity:1" fill="#f4f1f2" d="M 66.5,36.5 C 69.3198,36.2475 71.9865,36.7475 74.5,38C 75.3366,39.0113 75.67,40.1779 75.5,41.5C 72.9755,40.1882 70.3088,39.6882 67.5,40C 64.3341,45.5187 66.0008,47.852 72.5,47C 72.9574,46.586 73.2907,46.086 73.5,45.5C 72.1667,44.8333 70.8333,44.1667 69.5,43.5C 71.7427,42.5258 74.076,42.1924 76.5,42.5C 75.1786,50.8237 71.1786,52.4903 64.5,47.5C 62.7624,43.3098 63.429,39.6432 66.5,36.5 Z"/></g>
<g><path style="opacity:1" fill="#d4c5c5" d="M 25.5,37.5 C 23.1667,37.5 20.8333,37.5 18.5,37.5C 18.5,41.5 18.5,45.5 18.5,49.5C 20.8333,49.5 23.1667,49.5 25.5,49.5C 23.0521,50.4731 20.3854,50.8064 17.5,50.5C 17.5,45.8333 17.5,41.1667 17.5,36.5C 20.3854,36.1936 23.0521,36.5269 25.5,37.5 Z"/></g>
<g><path style="opacity:1" fill="#ede4e0" d="M 20.5,38.5 C 21.8333,38.5 23.1667,38.5 24.5,38.5C 24.5,39.8333 24.5,41.1667 24.5,42.5C 23.1667,42.5 21.8333,42.5 20.5,42.5C 20.5,41.1667 20.5,39.8333 20.5,38.5 Z"/></g>
<g><path style="opacity:1" fill="#f4eee9" d="M 20.5,44.5 C 22.1667,44.5 23.8333,44.5 25.5,44.5C 25.5,45.5 25.5,46.5 25.5,47.5C 23.8333,47.5 22.1667,47.5 20.5,47.5C 20.5,46.5 20.5,45.5 20.5,44.5 Z"/></g>
<g><path style="opacity:0.006" fill="#c0acaf" d="M 89.5,46.5 C 89.5,47.8333 89.5,49.1667 89.5,50.5C 88.1667,49.1667 88.1667,47.8333 89.5,46.5 Z"/></g>
<g><path style="opacity:0.205" fill="#c0acaf" d="M 89.5,58.5 C 89.5,59.8333 89.5,61.1667 89.5,62.5C 88.325,62.719 87.325,62.3857 86.5,61.5C 86.8793,59.7869 87.8793,58.7869 89.5,58.5 Z"/></g>
</svg>
