<svg width="39" height="52" viewBox="0 0 39 52" fill="none" xmlns="http://www.w3.org/2000/svg">
<path fill-rule="evenodd" clip-rule="evenodd" d="M37 40C36.9431 38.891 36.6098 37.891 36 37C36 25.3333 36 13.6667 36 2C24.6667 2 13.3333 2 2 2C1.3333 18 0.6667 34 0 50C0 33.3333 0 16.6667 0 0C12.6667 0 25.3333 0 38 0C38.3289 13.5105 37.9956 26.8438 37 40Z" fill="#C3AFB3"/>
<path fill-rule="evenodd" clip-rule="evenodd" d="M2 3C2 2.6667 2 2.3333 2 2C13.3333 2 24.6667 2 36 2C36 13.6667 36 25.3333 36 37C35.6667 37 35.3333 37 35 37C35 25.6667 35 14.3333 35 3C24 3 13 3 2 3Z" fill="#EDE9EA"/>
<path fill-rule="evenodd" clip-rule="evenodd" d="M30 10C22.2572 9.3701 14.9238 10.0367 8.00001 12C7.09601 11.291 6.76271 10.291 7.00001 9C14.8516 8.6746 22.5182 9.008 30 10Z" fill="#DDD2D4"/>
<path fill-rule="evenodd" clip-rule="evenodd" d="M30 10C23.0762 11.9633 15.7428 12.6299 8 12C14.9238 10.0367 22.2572 9.37013 30 10Z" fill="#C3AFB3"/>
<path fill-rule="evenodd" clip-rule="evenodd" d="M7 19C14.6955 18.6692 22.3622 19.0025 30 20C26.1667 20.3333 22.3333 20.6667 18.5 21C14.271 20.9898 10.4377 20.3232 7 19Z" fill="#C1ADB1"/>
<path fill-rule="evenodd" clip-rule="evenodd" d="M7 28C14.6955 27.6692 22.3622 28.0025 30 29C26.1667 29.3333 22.3333 29.6667 18.5 30C14.271 29.9898 10.4377 29.3232 7 28Z" fill="#C1ADB1"/>
<path fill-rule="evenodd" clip-rule="evenodd" d="M2 2C2 2.3333 2 2.6667 2 3C2 18 2 33 2 48C9.4818 48.992 17.1484 49.3254 25 49C25 45.3333 25 41.6667 25 38C28.1248 37.0206 31.4581 36.6872 35 37C35.3333 37 35.6667 37 36 37C36.6098 37.891 36.9431 38.891 37 40C33.8707 43.6309 30.5374 47.1309 27 50.5C17.8238 51.324 8.8238 51.1573 0 50C0.6667 34 1.3333 18 2 2Z" fill="#C7B4B8"/>
<path fill-rule="evenodd" clip-rule="evenodd" d="M27 40C29.0273 39.8379 31.0273 40.0045 33 40.5C31.1667 42.3333 29.3333 44.1667 27.5 46C27.0045 44.0273 26.8379 42.0273 27 40Z" fill="#F7F7F7"/>
<path fill-rule="evenodd" clip-rule="evenodd" d="M25 38C25 41.6667 25 45.3333 25 49C17.1484 49.3254 9.4818 48.992 2 48C9.3333 48 16.6667 48 24 48C23.6872 44.4581 24.0206 41.1248 25 38Z" fill="#DDD2D4"/>
</svg>
