<svg width="54" height="49" viewBox="0 0 54 49" fill="none" xmlns="http://www.w3.org/2000/svg">
<path fill-rule="evenodd" clip-rule="evenodd" d="M8.12413 0C20.7908 0 33.4574 0 46.1241 0C45.9581 5.3437 46.1247 10.6771 46.6241 16C48.7961 17.0853 50.7961 18.4186 52.6241 20C53.1239 29.6609 53.2906 39.3276 53.1241 49C35.4574 49 17.7908 49 0.124129 49C-0.207671 39.3104 0.125729 29.6437 1.12413 20C1.80763 19.6373 2.47423 19.3039 3.12413 19C4.45453 20.9918 5.78783 22.9918 7.12413 25C6.23313 24.3902 5.23313 24.0569 4.12413 24C4.06413 23.4569 3.73083 23.1236 3.12413 23C1.79083 30.6667 1.79083 38.3333 3.12413 46C3.73083 45.8764 4.06413 45.5431 4.12413 45C4.79083 44.6667 5.45743 44.3333 6.12413 44C6.79083 44 7.12413 44.3333 7.12413 45C7.12413 45.6667 6.79083 46 6.12413 46C5.33503 46.2828 4.66833 46.7828 4.12413 47.5C11.6241 47.6667 19.1241 47.8333 26.6241 48C34.6908 47.9673 42.5242 47.3006 50.1241 46C51.4574 38.3333 51.4574 30.6667 50.1241 23C49.0409 22.9606 48.0409 22.6272 47.1241 22C46.7908 22.6667 46.4574 23.3333 46.1241 24C45.4574 16.5109 44.7907 9.1775 44.1241 2C32.4574 2 20.7908 2 9.12413 2C8.28593 1.6583 7.95253 0.9916 8.12413 0Z" fill="#C5B2B6"/>
<path fill-rule="evenodd" clip-rule="evenodd" d="M46.1241 18C47.0975 18.4867 48.0975 18.9867 49.1241 19.5C47.4666 20.2252 46.4666 19.7252 46.1241 18Z" fill="#E4DDDE"/>
<path fill-rule="evenodd" clip-rule="evenodd" d="M4.12414 24C2.79084 31 2.79084 38 4.12414 45C4.06414 45.5431 3.73084 45.8764 3.12414 46C1.79084 38.3333 1.79084 30.6667 3.12414 23C3.73084 23.1236 4.06414 23.4569 4.12414 24Z" fill="#E4DDDE"/>
<path fill-rule="evenodd" clip-rule="evenodd" d="M8.12413 0C7.95253 0.9916 8.28593 1.6583 9.12413 2C8.95783 9.3409 9.12443 16.6742 9.62413 24C14.3304 26.8673 19.1637 29.534 24.1241 32C26.0159 29.4557 27.8493 29.4557 29.6241 32C34.0456 29.5391 38.5456 27.2058 43.1241 25C44.1216 17.3622 44.4549 9.6955 44.1241 2C44.7907 9.1775 45.4574 16.5109 46.1241 24C46.4574 23.3333 46.7908 22.6667 47.1241 22C48.0409 22.6272 49.0409 22.9606 50.1241 23C44.2931 26.6365 38.2931 30.1365 32.1241 33.5C38.3649 37.4426 44.3649 41.6092 50.1241 46C42.5242 47.3006 34.6908 47.9673 26.6241 48C19.1241 47.8333 11.6241 47.6667 4.12413 47.5C4.66833 46.7828 5.33503 46.2828 6.12413 46C19.9513 47.1607 33.9513 47.3273 48.1241 46.5C41.4252 41.4868 34.4252 36.9868 27.1241 33C20.4399 37.0072 13.7732 41.0072 7.12413 45C7.12413 44.3333 6.79083 44 6.12413 44C11.2817 40.363 16.615 36.863 22.1241 33.5C17.0968 30.6547 12.0968 27.8214 7.12413 25C5.78783 22.9918 4.45453 20.9918 3.12413 19C4.31243 18.1364 5.47903 17.1364 6.62413 16C6.79743 10.4842 7.29743 5.1509 8.12413 0Z" fill="#C9B8BB"/>
<path fill-rule="evenodd" clip-rule="evenodd" d="M24.1241 7C31.7881 6.1662 35.2881 9.4995 34.6241 17C33.8854 18.0742 32.8854 18.7409 31.6241 19C29.1601 18.3392 26.6601 17.8392 24.1241 17.5C22.0027 12.9314 23.336 10.5981 28.1241 10.5C29.511 12.545 30.6777 14.7117 31.6241 17C33.6156 12.3403 31.9489 9.6737 26.6241 9C21.6009 10.0422 19.9342 13.0422 21.6241 18C22.4574 18.8333 23.2908 19.6667 24.1241 20.5C38.7908 21.8306 38.7908 22.4973 24.1241 22.5C19.5556 19.9586 18.0556 16.1253 19.6241 11C21.0209 9.4297 22.5209 8.0964 24.1241 7Z" fill="#C7B5B8"/>
<path fill-rule="evenodd" clip-rule="evenodd" d="M26.1241 12C27.7283 12.787 28.395 14.1203 28.1241 16C27.1241 16 26.1241 16 25.1241 16C25.0567 14.5413 25.39 13.2079 26.1241 12Z" fill="#F6F5F5"/>
</svg>
