<?xml version="1.0" encoding="UTF-8"?>
<!DOCTYPE svg PUBLIC "-//W3C//DTD SVG 1.1//EN" "http://www.w3.org/Graphics/SVG/1.1/DTD/svg11.dtd">
<svg xmlns="http://www.w3.org/2000/svg" version="1.1" width="117px" height="227px" style="shape-rendering:geometricPrecision; text-rendering:geometricPrecision; image-rendering:optimizeQuality; fill-rule:evenodd; clip-rule:evenodd" xmlns:xlink="http://www.w3.org/1999/xlink">
<g><path style="opacity:1" fill="#f8f8f8" d="M -0.5,-0.5 C 37.1667,-0.5 74.8333,-0.5 112.5,-0.5C 112.789,5.59074 112.455,11.5907 111.5,17.5C 101.692,23.5741 91.6916,29.4074 81.5,35C 91.5302,41.6815 101.864,47.8481 112.5,53.5C 112.5,53.8333 112.5,54.1667 112.5,54.5C 102.058,60.2242 91.7245,66.2242 81.5,72.5C 91.6971,78.7642 102.03,84.7642 112.5,90.5C 112.167,91.1667 111.833,91.8333 111.5,92.5C 101.363,98.0693 91.3635,103.903 81.5,110C 91.6721,116.03 101.672,122.197 111.5,128.5C 111.5,128.833 111.5,129.167 111.5,129.5C 101.233,135.11 91.233,141.11 81.5,147.5C 91.5634,153.526 101.563,159.526 111.5,165.5C 111.5,165.833 111.5,166.167 111.5,166.5C 101.563,172.474 91.5634,178.474 81.5,184.5C 91.6971,190.764 102.03,196.764 112.5,202.5C 112.5,210.5 112.5,218.5 112.5,226.5C 74.8333,226.5 37.1667,226.5 -0.5,226.5C -0.5,150.833 -0.5,75.1667 -0.5,-0.5 Z"/></g>
<g><path style="opacity:1" fill="#f1f1f1" d="M 112.5,-0.5 C 113.833,-0.5 115.167,-0.5 116.5,-0.5C 116.5,75.1667 116.5,150.833 116.5,226.5C 115.167,226.5 113.833,226.5 112.5,226.5C 112.5,218.5 112.5,210.5 112.5,202.5C 112.828,190.322 112.495,178.322 111.5,166.5C 111.5,166.167 111.5,165.833 111.5,165.5C 112.833,153.5 112.833,141.5 111.5,129.5C 111.5,129.167 111.5,128.833 111.5,128.5C 112.833,116.5 112.833,104.5 111.5,92.5C 111.833,91.8333 112.167,91.1667 112.5,90.5C 112.5,78.5 112.5,66.5 112.5,54.5C 112.5,54.1667 112.5,53.8333 112.5,53.5C 112.828,41.3217 112.495,29.3217 111.5,17.5C 112.455,11.5907 112.789,5.59074 112.5,-0.5 Z"/></g>
<g><path style="opacity:1" fill="#dce5e4" d="M 111.5,17.5 C 112.495,29.3217 112.828,41.3217 112.5,53.5C 101.864,47.8481 91.5302,41.6815 81.5,35C 91.6916,29.4074 101.692,23.5741 111.5,17.5 Z"/></g>
<g><path style="opacity:1" fill="#dce5e4" d="M 50.5,55.5 C 50.1667,54.8333 49.8333,54.1667 49.5,53.5C 59.4727,47.8453 69.4727,42.1786 79.5,36.5C 80.6659,48.4861 80.8326,60.4861 80,72.5C 70.2786,66.6059 60.4453,60.9392 50.5,55.5 Z"/></g>
<g><path style="opacity:1" fill="#dce5e4" d="M 48.5,54.5 C 48.5,66.5 48.5,78.5 48.5,90.5C 38.0579,84.7758 27.7245,78.7758 17.5,72.5C 27.6971,66.2358 38.0304,60.2358 48.5,54.5 Z"/></g>
<g><path style="opacity:1" fill="#f0f2f2" d="M 49.5,53.5 C 49.8333,54.1667 50.1667,54.8333 50.5,55.5C 49.5051,66.988 49.1717,78.6547 49.5,90.5C 49.5,90.8333 49.5,91.1667 49.5,91.5C 48.8333,91.5 48.5,91.1667 48.5,90.5C 48.5,78.5 48.5,66.5 48.5,54.5C 48.5,53.8333 48.8333,53.5 49.5,53.5 Z"/></g>
<g><path style="opacity:1" fill="#dce5e4" d="M 112.5,54.5 C 112.5,66.5 112.5,78.5 112.5,90.5C 102.03,84.7642 91.6971,78.7642 81.5,72.5C 91.7245,66.2242 102.058,60.2242 112.5,54.5 Z"/></g>
<g><path style="opacity:1" fill="#dce5e4" d="M 49.5,91.5 C 49.5,91.1667 49.5,90.8333 49.5,90.5C 59.4658,84.8891 69.4658,79.2224 79.5,73.5C 80.6659,85.4861 80.8326,97.4861 80,109.5C 69.6878,103.6 59.5211,97.5997 49.5,91.5 Z"/></g>
<g><path style="opacity:1" fill="#dce5e4" d="M 111.5,92.5 C 112.833,104.5 112.833,116.5 111.5,128.5C 101.672,122.197 91.6721,116.03 81.5,110C 91.3635,103.903 101.363,98.0693 111.5,92.5 Z"/></g>
<g><path style="opacity:1" fill="#dce5e4" d="M 111.5,129.5 C 112.833,141.5 112.833,153.5 111.5,165.5C 101.563,159.526 91.5634,153.526 81.5,147.5C 91.233,141.11 101.233,135.11 111.5,129.5 Z"/></g>
<g><path style="opacity:1" fill="#dce5e4" d="M 79.5,147.5 C 80.8245,159.34 80.8245,171.34 79.5,183.5C 69.2157,177.863 59.2157,171.863 49.5,165.5C 59.5634,159.474 69.5634,153.474 79.5,147.5 Z"/></g>
<g><path style="opacity:1" fill="#dce5e4" d="M 111.5,166.5 C 112.495,178.322 112.828,190.322 112.5,202.5C 102.03,196.764 91.6971,190.764 81.5,184.5C 91.5634,178.474 101.563,172.474 111.5,166.5 Z"/></g>
</svg>
