<?xml version="1.0" encoding="UTF-8"?>
<!DOCTYPE svg PUBLIC "-//W3C//DTD SVG 1.1//EN" "http://www.w3.org/Graphics/SVG/1.1/DTD/svg11.dtd">
<svg xmlns="http://www.w3.org/2000/svg" version="1.1" width="65px" height="92px" style="shape-rendering:geometricPrecision; text-rendering:geometricPrecision; image-rendering:optimizeQuality; fill-rule:evenodd; clip-rule:evenodd" xmlns:xlink="http://www.w3.org/1999/xlink">
<g><path style="opacity:1" fill="#fefefe" d="M -0.5,-0.5 C 21.1667,-0.5 42.8333,-0.5 64.5,-0.5C 64.5,30.1667 64.5,60.8333 64.5,91.5C 42.8333,91.5 21.1667,91.5 -0.5,91.5C -0.5,60.8333 -0.5,30.1667 -0.5,-0.5 Z"/></g>
<g><path style="opacity:1" fill="#c6b2b9" d="M 27.5,22.5 C 34.0446,23.5533 40.3779,25.3867 46.5,28C 49.943,40.8711 47.2764,52.2044 38.5,62C 36.0366,64.565 33.0366,66.065 29.5,66.5C 20.1038,63.5985 14.2705,57.2652 12,47.5C 11.3333,41.1667 11.3333,34.8333 12,28.5C 17.0977,26.192 22.2643,24.192 27.5,22.5 Z"/></g>
<g><path style="opacity:1" fill="#f9f9f7" d="M 25.5,25.5 C 32.0824,25.5814 38.4157,26.9147 44.5,29.5C 48.5594,45.3866 43.5594,57.0533 29.5,64.5C 20.4037,60.549 15.237,53.549 14,43.5C 13.3333,38.8333 13.3333,34.1667 14,29.5C 17.9522,28.2394 21.7856,26.906 25.5,25.5 Z"/></g>
<g><path style="opacity:1" fill="#c7b4bd" d="M 40.5,31.5 C 42.0649,38.5195 41.5649,45.5195 39,52.5C 31.4612,63.4994 24.9612,62.8327 19.5,50.5C 19.5,48.5 19.5,46.5 19.5,44.5C 20.832,50.4628 24.1653,55.1294 29.5,58.5C 33.6805,55.8095 36.6805,52.1428 38.5,47.5C 39.2216,47.0825 39.7216,46.4158 40,45.5C 40.4992,40.8452 40.6658,36.1785 40.5,31.5 Z"/></g>
<g><path style="opacity:1" fill="#fdfefd" d="M 38.5,47.5 C 36.6805,52.1428 33.6805,55.8095 29.5,58.5C 24.1653,55.1294 20.832,50.4628 19.5,44.5C 19.1774,40.774 19.5108,37.1073 20.5,33.5C 23.4518,32.3456 26.4518,31.3456 29.5,30.5C 32.4518,31.6544 35.4518,32.6544 38.5,33.5C 39.6514,38.1671 39.6514,42.8338 38.5,47.5 Z"/></g>
<g><path style="opacity:1" fill="#c9b4b7" d="M 40.5,31.5 C 40.6658,36.1785 40.4992,40.8452 40,45.5C 39.7216,46.4158 39.2216,47.0825 38.5,47.5C 39.6514,42.8338 39.6514,38.1671 38.5,33.5C 35.4518,32.6544 32.4518,31.6544 29.5,30.5C 26.4518,31.3456 23.4518,32.3456 20.5,33.5C 19.5108,37.1073 19.1774,40.774 19.5,44.5C 19.5,46.5 19.5,48.5 19.5,50.5C 18.7321,49.7375 18.2321,48.7375 18,47.5C 17.5006,42.1771 17.334,36.8437 17.5,31.5C 21.3455,30.6082 25.1788,29.6082 29,28.5C 32.9138,29.2699 36.7471,30.2699 40.5,31.5 Z"/></g>
</svg>
